<?xml version="1.0" encoding="UTF-8" standalone="no"?>
<svg width="800" height="800" viewBox="0 0 35.438 35.438" version="1.1" xmlns="http://www.w3.org/2000/svg"
  xmlns:svg="http://www.w3.org/2000/svg">
  <defs>
    <filter style="color-interpolation-filters:sRGB" id="filter50" x="-0.04137931" y="-0.04137931" width="1.0965517"
      height="1.0965517">
      <feFlood result="flood" in="SourceGraphic" flood-opacity="1.000000" flood-color="rgb(0,0,0)" />
      <feGaussianBlur result="blur" in="SourceGraphic" stdDeviation="0.500000" />
      <feOffset result="offset" in="blur" dx="0.300000" dy="0.300000" />
      <feComposite result="comp1" operator="in" in="flood" in2="offset" />
      <feComposite result="comp2" operator="over" in="SourceGraphic" in2="comp1" />
    </filter>
  </defs>
  <g transform="rotate(7,0.32535289,3.4272918),translate(4.6313014,0.79289913)">
    <rect fill="#fff" width="29" height="29" ry="4.5" style="filter:url(#filter50)" rx="4.5" />
    <rect fill="#fff" width="29" height="29" ry="4.5" rx="4.5" />
    <path fill="#000"
      d="M4 4h7v7h-7zM12 4h2v1h-1v1h-1zM16 4h1v2h-1zM18 4h7v7h-7zM6 6h3v3h-3zM13 6h3v1h-1v1h1v1h-2v-1h-2v-1h1zM20 6h3v3h-3zM16 7h1v1h-1zM13 9h1v1h-1zM12 10h1v1h1v2h-1v-1h-1zM14 10h1v1h-1zM16 10h1v3h-2v-2h1zM4 12h1v1h-1zM6 12h2v2h-2v1h-1v-2h1zM9 12h3v2h-1v-1h-1v1h-1zM18 12h1v1h-1zM21 12h1v1h-1zM23 12h2v3h-3v1h-1v1h1v1h1v2h1v2h-2v1h-1v-4h-1v-3h-1v-3h2v1h-1v1h1v-1h1v-1h1zM14 13h1v1h-1zM8 14h1v1h-1zM10 14h1v1h-1zM12 14h1v1h-1zM17 14h1v1h-1zM4 15h1v1h1v-1h2v2h-4zM9 15h1v1h2v1h-3zM13 15h1v1h-1zM15 15h2v1h-1v1h1v1h-1v1h2v3h-1v1h-1v2h-1v-1h-1v-2h-1v1h-1v-2h3v1h1v-1h-1v-1h-3v-3h1v1h2v-1h-1v-1h1zM18 16h1v2h-1zM23 17h1v1h-1zM4 18h7v7h-7zM24 19h1v1h-1zM6 20h3v3h-3zM19 20h1v1h-1zM17 23h2v1h2v1h-3v-1h-1zM24 23h1v1h-1zM12 24h1v1h-1zM22 24h1v1h-1zM5 5v5h5v-5zM19 5v5h5v-5zM5 19v5h5v-5z" />
  </g>
</svg>